<mxfile host="app.diagrams.net" modified="2023-02-25T08:05:31.406Z" agent="5.0 (X11)" etag="O3rnf7VZWGo9-_CIKcku" version="20.8.23" type="github">
  <diagram name="第 1 页" id="XRK-loI8p1CAV1OYCNMM">
    <mxGraphModel dx="1384" dy="882" grid="0" gridSize="10" guides="1" tooltips="1" connect="1" arrows="1" fold="1" page="1" pageScale="1" pageWidth="827" pageHeight="1169" math="0" shadow="0">
      <root>
        <mxCell id="0" />
        <mxCell id="1" parent="0" />
        <mxCell id="t2deSyzO8-UQB8BYlAkM-1" value="" style="rounded=0;whiteSpace=wrap;html=1;" vertex="1" parent="1">
          <mxGeometry x="180" y="180" width="120" height="60" as="geometry" />
        </mxCell>
      </root>
    </mxGraphModel>
  </diagram>
</mxfile>
